<svg xmlns="http://www.w3.org/2000/svg" width="16" height="16" fill="currentColor" class="bi bi-code" viewBox="0 0 16 16">
    <path d="M5.93 14.95l-4-4L5.93 6.95A1.5 1.5 0 0 1 7.5 5h5a1.5 1.5 0 0 1 0 3h-5a.5.5 0 0 0-.5.5v.5a2 2 0 0 0 4 0 .5.5 0 0 0-1 0 .5.5 0 0 1-1 0V9a1.5 1.5 0 0 1-3 0 .5.5 0 0 0-1 0 .5.5 0 0 1-1 0V9a2 2 0 0 0 4 0V9a.5.5 0 0 0-1 0 .5.5 0 0 1-1 0V9a1.5 1.5 0 0 1-3 0V8a.5.5 0 0 0-1 0V8a.5.5 0 0 1-1 0V8a2 2 0 0 0 4 0V8a.5.5 0 0 0-1 0V8a.5.5 0 0 1-1 0V8a1.5 1.5 0 0 1-3 0V5a.5.5 0 0 0-1 0V5a1.5 1.5 0 0 1 1.07-.93l4-1a1.5 1.5 0 0 1 1.86 1.86l-1 4a1.5 1.5 0 0 1-1.85 1.07z"/>
  </svg>
  